<?xml version="1.0" encoding="UTF-8" standalone="no"?>
<svg
   xmlns:dc="http://purl.org/dc/elements/1.1/"
   xmlns:cc="http://creativecommons.org/ns#"
   xmlns:rdf="http://www.w3.org/1999/02/22-rdf-syntax-ns#"
   xmlns:svg="http://www.w3.org/2000/svg"
   xmlns="http://www.w3.org/2000/svg"
   xmlns:sodipodi="http://sodipodi.sourceforge.net/DTD/sodipodi-0.dtd"
   xmlns:inkscape="http://www.inkscape.org/namespaces/inkscape"
   version="1.0"
   width="300"
   height="200"
   viewBox="0 0 225 150"
   preserveAspectRatio="xMidYMid meet"
   id="svg8"
   sodipodi:docname="seed.svg"
   inkscape:version="0.92.5 (2060ec1f9f, 2020-04-08)">
  <defs
     id="defs12" />
  <sodipodi:namedview
     pagecolor="#ffffff"
     bordercolor="#666666"
     borderopacity="1"
     objecttolerance="10"
     gridtolerance="10"
     guidetolerance="10"
     inkscape:pageopacity="0"
     inkscape:pageshadow="2"
     inkscape:window-width="1848"
     inkscape:window-height="1016"
     id="namedview10"
     showgrid="false"
     units="px"
     inkscape:zoom="3.1289475"
     inkscape:cx="126.67981"
     inkscape:cy="133.97812"
     inkscape:window-x="72"
     inkscape:window-y="27"
     inkscape:window-maximized="1"
     inkscape:current-layer="svg8" />
  <metadata
     id="metadata2">
Created by potrace 1.15, written by Peter Selinger 2001-2017
<rdf:RDF>
  <cc:Work
     rdf:about="">
    <dc:format>image/svg+xml</dc:format>
    <dc:type
       rdf:resource="http://purl.org/dc/dcmitype/StillImage" />
    <dc:title></dc:title>
  </cc:Work>
</rdf:RDF>
</metadata>
  <g
     transform="matrix(0.00951387,0,0,-0.00951387,1.9931648,133.14394)"
     id="g6"
     style="fill:#653d21;stroke:none;fill-opacity:1"
     inkscape:export-xdpi="96"
     inkscape:export-ydpi="96">
    <path
       d="m 3180,12790 c -463,-46 -1429,-444 -1837,-757 -103,-78 -205,-189 -239,-259 -27,-54 -29,-69 -33,-192 -6,-239 48,-496 176,-845 l 48,-129 44,7 c 24,4 49,9 56,11 9,4 14,57 18,187 11,348 75,577 199,712 61,67 111,98 228,140 l 88,32 58,-22 c 173,-65 829,-442 1073,-616 70,-50 108,-57 164,-30 90,44 173,191 262,468 32,98 60,185 63,193 13,35 35,-296 54,-820 27,-701 7,-5228 -23,-5280 -6,-10 -8,-2 -9,25 -1,125 -109,1073 -171,1495 -100,684 -179,1021 -287,1220 l -46,85 -7,250 c -4,138 -8,311 -8,385 l -1,135 -74,94 c -97,124 -116,133 -271,139 C 2343,9431 1645,9274 1100,9058 929,8990 683,8866 559,8784 424,8696 266,8538 191,8416 -17,8080 -57,7608 84,7160 c 19,-59 25,-71 31,-55 5,11 16,40 26,65 20,53 47,100 163,283 191,302 335,515 379,559 90,89 215,128 344,108 159,-25 276,-73 628,-260 418,-222 576,-280 760,-280 109,0 191,22 305,81 164,85 287,239 331,414 l 12,48 18,-59 c 93,-298 206,-997 299,-1849 16,-154 32,-290 34,-302 4,-30 -8,-29 -21,0 -21,45 -114,147 -181,198 -112,84 -287,160 -428,183 l -41,7 -17,-46 c -10,-25 -17,-48 -15,-50 2,-2 31,-23 64,-47 109,-80 197,-204 236,-330 22,-73 24,-121 7,-136 -7,-5 -95,-47 -195,-92 -298,-134 -536.8152,-361.076 -768.6304,-688.5976 -380.7014,-876.8968 -211.8173,-1078.5757 -222.6855,-1307.5162 268.4744,-875.9321 1238.0479,-906.0873 1716.2608,-711.0013 265.2431,-215.5781 994.625,111.2801 1293.9254,347.3696 C 5429.314,3593.0345 5176.8618,4697.9107 4946,4995 c -210,210 -330,314 -626,546 -118,92 -228,182 -245,199 -29,31 -30,34 -29,129 3,190 49,364 131,503 29,50 52,92 50,94 -4,5 -162,-58 -217,-86 -25,-13 -76,-53 -113,-91 -66,-66 -67,-67 -63,-36 3,18 8,77 11,132 4,55 20,273 36,485 113,1469 268,2595 426,3098 14,45 28,81 29,79 2,-2 15,-47 28,-100 73,-286 246,-508 487,-622 126,-59 222,-79 394,-79 171,-1 210,8 360,79 180,86 318,200 710,584 138,136 293,282 345,325 249,209 456,295 635,265 80,-13 176,-53 245,-103 111,-80 553,-446 846,-701 12,-11 48,-51 78,-89 l 56,-69 v 116 c 0,322 -76,665 -210,942 -198,409 -504,677 -935,819 -480,157 -1315,213 -2105,141 -595,-55 -1000,-157 -1074,-270 -24,-37 -106,-244 -112,-284 -4,-28 20,-118 100,-385 l 105,-349 -29,-56 c -180,-358 -375,-1598 -495,-3151 -9,-113 -20,-236 -25,-275 -8,-63 -9,-59 -4,40 12,301 16,3078 5,3610 -11,523 -31,1034 -48,1195 l -6,65 110,-103 c 115,-106 153,-128 208,-116 157,33 288,254 359,605 51,249 23,383 -103,510 -91,90 -227,148 -436,185 -96,17 -523,26 -645,14 z"
       id="path4"
       inkscape:connector-curvature="0"
       sodipodi:nodetypes="ccccccccccccccccccccccccccccccccccccccscccccccccccsccccccccccccccccccccccccccccccccscccccccccccccccccccc"
       style="fill:#653d21;fill-opacity:1" />
  </g>
  <flowRoot
     xml:space="preserve"
     id="flowRoot1376"
     style="font-style:normal;font-weight:normal;font-size:40px;line-height:1.25;font-family:sans-serif;letter-spacing:0px;word-spacing:0px;fill:#653d21;fill-opacity:1;stroke:none;"
     transform="matrix(0.75,0,0,0.75,-16.778805,1.4381833)"
     inkscape:export-xdpi="96"
     inkscape:export-ydpi="96"><flowRegion
       id="flowRegion1378"
       style="fill:#653d21;fill-opacity:1;"><rect
         id="rect1380"
         width="203.90244"
         height="101.63162"
         x="86.291"
         y="66.408752"
         style="fill:#653d21;fill-opacity:1;" /></flowRegion><flowPara
       id="flowPara1382"
       style="font-style:normal;font-variant:normal;font-weight:bold;font-stretch:normal;font-family:'Noto Serif CJK KR';-inkscape-font-specification:'Noto Serif CJK KR Bold';fill:#653d21;fill-opacity:1;">Seedo</flowPara></flowRoot></svg>
