<?xml version="1.0" encoding="UTF-8" standalone="no"?>
<!-- Generator: Adobe Illustrator 17.1.0, SVG Export Plug-In . SVG Version: 6.00 Build 0)  -->

<svg
   xmlns:dc="http://purl.org/dc/elements/1.1/"
   xmlns:cc="http://creativecommons.org/ns#"
   xmlns:rdf="http://www.w3.org/1999/02/22-rdf-syntax-ns#"
   xmlns:svg="http://www.w3.org/2000/svg"
   xmlns="http://www.w3.org/2000/svg"
   xmlns:sodipodi="http://sodipodi.sourceforge.net/DTD/sodipodi-0.dtd"
   xmlns:inkscape="http://www.inkscape.org/namespaces/inkscape"
   version="1.1"
   id="Capa_1"
   x="0px"
   y="0px"
   viewBox="0 0 335.302 335.302"
   style="enable-background:new 0 0 335.302 335.302;"
   xml:space="preserve"
   sodipodi:docname="shop.svg"
   inkscape:version="0.92.5 (2060ec1f9f, 2020-04-08)"><metadata
   id="metadata43"><rdf:RDF><cc:Work
       rdf:about=""><dc:format>image/svg+xml</dc:format><dc:type
         rdf:resource="http://purl.org/dc/dcmitype/StillImage" /></cc:Work></rdf:RDF></metadata><defs
   id="defs41" /><sodipodi:namedview
   pagecolor="#ffffff"
   bordercolor="#666666"
   borderopacity="1"
   objecttolerance="10"
   gridtolerance="10"
   guidetolerance="10"
   inkscape:pageopacity="0"
   inkscape:pageshadow="2"
   inkscape:window-width="1848"
   inkscape:window-height="1016"
   id="namedview39"
   showgrid="false"
   inkscape:zoom="0.7038431"
   inkscape:cx="-88.7982"
   inkscape:cy="161.96792"
   inkscape:window-x="72"
   inkscape:window-y="27"
   inkscape:window-maximized="1"
   inkscape:current-layer="g6" />
<g
   id="g6">
	<path
   d="M319.555,0h-42.422c-12.278,0-23.913,8.69-27.063,20.558L233.956,81H14.814c-4.089,0-7.811,1.67-10.479,4.614   c-2.668,2.944-3.916,6.831-3.515,10.901l11.405,115.809C13.011,220.298,20.17,227,28.182,227h183.423   c7.753,0,15.413-6.066,17.438-13.551l21.406-79.26c0.593-1.066,1.068-2.061,1.395-3.295L278.672,30h40.884c8.284,0,15-6.716,15-15   S327.84,0,319.555,0z"
   id="path2"
   style="fill:#7cc24c;fill-opacity:1"
   inkscape:export-xdpi="96"
   inkscape:export-ydpi="96" />
	<path
   d="M221.17,257h-202c-8.284,0-15,6.716-15,15s6.716,15,15,15h8.781c-2.128,4.416-3.321,9.364-3.321,14.585   c0,18.591,15.125,33.717,33.718,33.717c18.591,0,33.717-15.125,33.717-33.717c0-5.221-1.193-10.169-3.321-14.585h66.737   c-2.128,4.416-3.321,9.364-3.321,14.585c0,18.591,15.125,33.717,33.717,33.717s33.718-15.125,33.718-33.717   c0-5.221-1.193-10.169-3.321-14.585h4.898c8.284,0,15-6.716,15-15S229.454,257,221.17,257z"
   id="path4"
   style="fill:#7cc24c;fill-opacity:1"
   inkscape:export-xdpi="96"
   inkscape:export-ydpi="96" />
</g>
<g
   id="g8">
</g>
<g
   id="g10">
</g>
<g
   id="g12">
</g>
<g
   id="g14">
</g>
<g
   id="g16">
</g>
<g
   id="g18">
</g>
<g
   id="g20">
</g>
<g
   id="g22">
</g>
<g
   id="g24">
</g>
<g
   id="g26">
</g>
<g
   id="g28">
</g>
<g
   id="g30">
</g>
<g
   id="g32">
</g>
<g
   id="g34">
</g>
<g
   id="g36">
</g>
</svg>